<svg xmlns="http://www.w3.org/2000/svg" version="1.0" width="1280.000000pt" height="778.000000pt" viewBox="0 0 1280.000000 478.000000" preserveAspectRatio="xMidYMid meet">
<metadata>
Created by potrace 1.15, written by Peter Selinger 2001-2017
</metadata>
<g transform="translate(0.000000,478.000000) scale(0.100000,-0.100000)" fill="#000000" stroke="none">
<path d="M1596 4573 c-10 -3 -38 -16 -62 -29 -24 -13 -50 -24 -58 -24 -9 0 -16 -6 -16 -14 0 -14 -86 -147 -95 -146 -21 1 -25 -2 -25 -20 0 -11 6 -23 13 -25 15 -6 11 -223 -5 -243 -8 -9 -8 -16 0 -24 8 -8 12 -51 12 -119 0 -82 3 -109 15 -119 13 -11 13 -15 0 -33 -17 -25 -20 -88 -4 -104 8 -8 8 -13 0 -17 -14 -9 -15 -276 -1 -276 6 0 5 -8 -2 -19 -10 -16 -9 -25 1 -45 10 -18 11 -32 3 -55 -15 -44 -16 -459 -1 -477 9 -11 9 -18 1 -26 -15 -15 -17 -790 -2 -818 7 -13 7 -21 0 -25 -6 -3 -10 -51 -10 -110 0 -88 3 -105 17 -114 16 -9 16 -11 1 -28 -14 -16 -17 -49 -17 -250 l-1 -232 29 -15 c22 -12 33 -28 44 -68 32 -107 32 -106 -10 -113 -21 -4 -44 -8 -50 -10 -9 -3 -13 -45 -15 -147 l-3 -143 -34 -2 c-48 -4 -63 -20 -56 -57 13 -65 14 -66 56 -66 38 0 40 -2 37 -27 -2 -17 -10 -27 -22 -29 -30 -4 -41 -21 -26 -39 7 -8 19 -15 27 -15 11 0 13 -7 9 -24 -4 -15 0 -28 9 -36 8 -7 15 -20 15 -29 0 -21 19 -41 39 -41 8 0 28 -12 44 -27 24 -23 38 -28 85 -29 76 -2 74 -1 63 -23 -17 -32 9 -55 53 -48 48 8 69 25 63 53 -3 16 2 24 17 28 28 7 32 -1 12 -23 -10 -11 -16 -28 -14 -38 3 -15 15 -19 68 -21 35 -2 70 -8 77 -13 7 -6 17 -8 22 -4 15 9 94 10 108 2 7 -4 21 -2 33 5 15 10 24 10 39 1 25 -16 1456 -19 1466 -3 8 13 72 13 80 0 9 -14 817 -14 832 1 8 8 17 8 31 0 29 -15 721 -14 740 1 9 8 16 8 24 0 16 -16 924 -17 933 -2 8 13 102 13 110 0 8 -13 542 -12 550 0 5 9 52 7 76 -4 8 -4 69 -5 135 -4 l119 3 3 27 c2 17 17 39 40 58 47 38 54 38 47 -4 -6 -28 -3 -36 13 -45 31 -17 67 -13 96 10 28 22 33 48 14 67 -6 6 -9 14 -6 17 13 13 39 -11 64 -58 14 -29 31 -58 37 -65 8 -10 93 -12 392 -12 363 1 384 2 400 20 23 26 13 68 -19 76 -18 4 -22 11 -19 29 3 12 0 25 -5 29 -6 3 -4 19 6 41 15 32 19 35 47 29 16 -3 37 -12 46 -20 8 -8 20 -14 26 -14 11 0 5 -58 -8 -66 -5 -3 -9 -16 -9 -30 0 -19 8 -28 38 -40 20 -9 46 -24 57 -34 19 -18 41 -19 330 -17 l310 2 13 28 c14 28 32 36 32 14 0 -16 47 -40 61 -31 6 3 16 1 24 -6 8 -6 41 -10 81 -8 59 3 69 6 72 22 3 12 -5 27 -19 37 -24 18 -23 19 54 19 l77 0 36 -40 37 -41 116 3 c107 3 116 5 126 24 19 38 37 54 61 54 13 0 24 -4 24 -10 0 -5 -9 -10 -19 -10 -25 0 -36 -30 -17 -49 13 -13 21 -13 58 0 24 7 59 24 78 37 l35 24 3 -24 c8 -50 -11 -48 572 -48 521 0 550 1 605 20 137 47 234 139 264 250 9 34 11 255 9 899 -3 798 -4 855 -20 865 -14 8 -22 6 -40 -11 l-22 -22 -21 30 c-41 55 -13 94 37 52 9 -8 27 -13 40 -11 l23 3 3 195 c1 107 0 205 -3 216 -2 12 -14 24 -25 27 -24 6 -17 33 11 40 23 6 26 52 3 65 -14 8 -14 10 0 21 29 24 15 111 -21 134 -20 12 -15 37 6 37 27 0 30 17 30 157 0 134 -7 151 -52 134 -33 -13 -40 -26 -27 -52 17 -31 4 -35 -23 -5 -21 22 -23 32 -17 66 9 50 10 51 55 55 69 7 65 -19 65 473 0 311 -4 457 -12 486 -32 114 -147 216 -283 252 -67 18 -274 18 -297 0 -10 -7 -18 -26 -18 -43 0 -17 -7 -36 -16 -44 -16 -13 -15 -3 2 62 10 36 -17 39 -261 37 -275 -3 -274 -3 -237 -82 12 -25 27 -47 32 -47 6 -1 15 -3 20 -4 6 -1 15 -3 21 -4 21 -2 -12 -31 -36 -31 -24 0 -116 -42 -150 -69 -18 -15 -19 -15 -7 1 11 14 10 22 -4 50 -9 18 -18 58 -19 88 -2 30 -3 58 -4 62 0 3 -15 14 -33 22 -43 22 -310 23 -328 2 -6 -8 -18 -12 -26 -9 -8 3 -32 -6 -54 -21 l-39 -25 -3 32 -3 32 -345 3 c-322 2 -347 1 -385 -17 -22 -10 -53 -32 -68 -48 -24 -26 -33 -29 -65 -24 -31 5 -38 11 -42 36 -6 33 -39 46 -120 49 -38 1 -47 -3 -55 -22 -6 -14 -15 -20 -25 -16 -43 18 -96 22 -122 8 -25 -13 -33 -12 -78 7 -33 14 -60 19 -80 16 -16 -4 -32 -2 -35 3 -12 19 -81 11 -101 -11 -26 -29 -8 -52 47 -62 36 -7 47 -14 58 -38 21 -47 12 -64 -38 -67 -27 -2 -49 2 -60 11 -9 8 -24 17 -33 20 -17 6 -18 42 -3 98 4 18 1 31 -10 43 -15 15 -93 16 -899 16 -595 0 -885 3 -892 10 -7 7 -52 10 -114 8 -87 -3 -105 -6 -114 -21 -9 -15 -7 -21 9 -34 19 -15 19 -15 -5 -9 -14 4 -32 8 -41 9 -9 1 -32 15 -50 30 l-34 28 -260 -5 c-143 -3 -276 -4 -295 -4 -28 1 -978 2 -1022 1 -7 0 -485 -1 -1063 -1 -577 -1 -1095 -1 -1150 -1 -55 0 -178 1 -273 2 -96 1 -176 -1 -178 -5 -3 -5 -14 -4 -24 2 -19 10 -109 12 -144 3z m4938 -147 c16 -40 45 -59 67 -45 18 11 30 11 48 0 12 -8 12 -17 1 -58 -7 -26 -20 -56 -29 -66 -15 -17 -15 -17 -23 2 -4 12 -14 21 -23 21 -10 0 -15 9 -15 26 0 28 -68 104 -94 104 -19 0 -30 32 -14 42 7 4 25 8 40 8 22 0 31 -7 42 -34z m3376 -115 c0 -37 5 -60 17 -73 9 -10 21 -28 27 -41 l12 -22 414 -5 c372 -4 420 -7 464 -24 104 -39 174 -99 225 -197 40 -74 55 -88 96 -89 17 0 40 -6 53 -13 22 -13 22 -13 -13 -26 -19 -7 -35 -16 -35 -21 0 -5 -13 -16 -30 -25 l-30 -15 0 -579 c0 -659 -8 -604 92 -614 31 -3 69 -13 85 -23 15 -10 29 -19 31 -20 2 -1 -5 -18 -14 -38 -12 -25 -24 -36 -39 -36 -12 0 -30 -9 -39 -19 -16 -17 -21 -18 -49 -6 -50 21 -67 5 -67 -60 0 -47 4 -57 24 -70 13 -9 27 -27 30 -40 3 -13 9 -31 12 -40 6 -15 4 -16 -15 -5 -48 25 -51 11 -51 -280 0 -298 -1 -292 71 -307 19 -3 52 -14 73 -24 l40 -17 -35 -6 c-19 -3 -59 -7 -89 -9 l-55 -2 -3 -149 c-2 -128 0 -151 14 -167 21 -23 32 -24 54 -4 16 14 20 13 49 -14 17 -16 31 -34 31 -39 0 -6 6 -12 13 -15 8 -3 4 -13 -13 -31 -20 -23 -30 -26 -55 -21 -16 3 -43 7 -60 8 l-30 2 -5 -165 c-5 -152 -7 -169 -32 -222 -31 -67 -103 -147 -162 -182 -96 -56 -85 -55 -1040 -56 -646 0 -883 -3 -893 -12 -10 -8 -17 -8 -25 0 -14 14 -1384 17 -1392 3 -3 -4 -26 -14 -52 -21 -44 -13 -47 -12 -63 9 l-17 22 -399 -4 c-220 -3 -404 -5 -410 -7 -19 -5 -110 11 -119 20 -6 6 -590 10 -1608 10 l-1598 0 -16 -25 c-15 -23 -19 -24 -33 -11 -23 21 -129 26 -713 34 -284 4 -520 10 -524 15 -4 4 164 7 374 7 209 0 383 4 386 8 7 13 103 14 111 2 8 -13 292 -14 300 0 8 13 142 13 150 0 10 -16 2217 -14 2233 2 9 9 15 9 24 0 15 -15 324 -17 333 -2 8 13 132 13 140 0 4 -6 86 -10 213 -10 251 0 259 3 254 76 -6 91 54 84 -703 84 -434 0 -670 -3 -674 -10 -8 -13 -132 -13 -140 0 -8 13 -322 13 -330 0 -8 -13 -78 -13 -92 1 -10 10 -79 8 -231 -7 -42 -4 -62 -2 -62 5 0 10 -274 11 -1225 2 -231 -2 -861 12 -900 19 -56 12 -145 68 -165 104 -7 13 -28 32 -46 42 -19 10 -34 24 -34 30 0 7 -8 22 -18 34 -18 22 -18 25 -2 59 15 31 18 71 18 293 0 239 -1 259 -19 279 -24 28 -24 70 0 91 17 15 19 29 16 175 -2 87 -3 163 -4 168 0 6 1 74 3 152 3 113 1 145 -10 154 -8 6 -14 17 -14 24 0 7 -9 24 -20 38 -11 14 -20 35 -20 46 0 18 4 20 24 15 18 -4 27 -1 34 13 13 23 7 74 -9 84 -9 5 -9 11 3 22 12 13 14 47 11 209 -1 106 -2 209 -2 228 1 19 2 49 3 65 1 24 -3 31 -22 33 -28 4 -58 -20 -66 -53 -4 -17 -14 -25 -34 -27 -27 -3 -27 -4 -30 -80 -2 -50 1 -78 8 -78 6 0 6 -7 -2 -20 -11 -17 -10 -26 4 -51 16 -27 16 -32 3 -45 -19 -19 -21 -184 -3 -202 9 -9 9 -15 0 -24 -8 -8 -12 -66 -12 -196 0 -171 2 -187 22 -221 11 -20 30 -43 41 -52 22 -18 16 -39 -12 -39 -10 0 -24 -6 -30 -14 -16 -19 -23 -114 -10 -138 7 -13 7 -23 0 -32 -8 -9 -11 -161 -11 -483 1 -438 2 -474 20 -522 10 -29 26 -64 35 -77 20 -30 19 -34 -5 -34 -30 0 -55 35 -79 106 -18 56 -21 88 -21 254 0 191 -2 207 -39 252 -10 13 -11 21 -3 31 7 8 9 33 6 64 -6 45 -4 51 15 56 21 5 21 7 19 254 l-3 248 -37 3 c-26 2 -41 10 -49 23 -13 26 -12 27 36 33 21 3 42 11 46 18 5 7 8 70 8 139 0 101 -3 129 -15 139 -15 13 -21 9 -93 -58 -22 -20 -26 -21 -34 -7 -5 10 -3 30 4 53 7 20 12 43 10 50 -1 8 7 16 18 19 12 3 21 9 21 14 0 13 34 11 48 -3 8 -8 15 -8 27 2 13 11 15 97 15 744 0 604 3 739 14 778 22 70 34 88 61 88 l24 0 -20 -46 c-11 -25 -23 -69 -26 -98 -7 -68 6 -82 76 -80 55 2 71 10 75 38 1 9 22 36 47 60 24 24 55 56 69 70 48 51 69 56 259 56 97 0 196 5 220 11 65 15 361 15 388 1 31 -17 1480 -17 1500 0 10 8 24 8 53 -2 31 -10 45 -10 69 0 20 8 48 10 83 5 40 -6 946 -12 1003 -7 6 1 37 -1 69 -4 33 -4 76 -1 95 5 60 18 197 21 221 4 16 -11 56 -14 187 -12 93 1 177 6 188 12 24 12 106 10 119 -3 6 -6 129 -10 316 -10 254 0 310 3 326 15 10 8 34 15 53 15 19 0 43 7 53 17 20 18 24 63 6 81 -15 15 -134 16 -144 1 -4 -8 -9 -8 -17 0 -14 14 -54 14 -62 1 -8 -13 -72 -13 -80 0 -4 6 -80 10 -196 10 l-189 0 -10 -24 c-14 -37 -30 -41 -30 -9 0 16 -5 34 -12 41 -16 16 -843 17 -853 2 -8 -13 -92 -13 -99 -1 -5 7 -113 7 -206 0 -8 0 -47 2 -86 6 -49 5 -73 4 -78 -4 -9 -14 -58 -15 -72 -1 -7 7 -197 9 -565 6 -660 -4 -427 -4 -1414 1 -631 3 -835 1 -852 -8 -18 -10 -28 -10 -47 1 -25 13 -75 11 -301 -8 -64 -6 -95 -5 -108 4 -17 11 -16 13 11 33 l29 20 11 -24 c13 -28 41 -32 75 -12 15 8 106 14 297 18 151 4 281 7 288 7 6 0 27 1 45 1 17 0 56 3 85 7 34 4 58 2 65 -5 14 -14 3686 -16 3735 -2 23 7 41 6 58 -1 20 -10 28 -8 48 11 23 22 23 22 29 2 5 -20 9 -20 988 -18 l984 2 0 27 c1 48 20 55 50 20 15 -18 44 -37 67 -44 37 -11 42 -10 58 10 17 21 18 21 23 2 5 -20 16 -20 551 -20 458 0 547 2 552 14 10 25 -17 99 -47 128 -38 39 -37 48 7 48 28 0 37 5 41 21 6 21 7 21 20 4 7 -11 13 -43 13 -74z m-1996 -2 c-4 -6 -11 -6 -20 2 -21 17 -17 31 6 19 11 -6 18 -15 14 -21z m-6324 12 c0 -5 -6 -14 -14 -20 -12 -10 -13 -8 -9 8 5 21 23 30 23 12z m9748 -651 c6 0 12 -4 12 -10 0 -5 -9 -10 -20 -10 -27 0 -100 -39 -100 -54 0 -7 5 -17 10 -22 18 -18 -11 -44 -42 -37 l-26 5 29 43 c16 23 38 45 50 48 11 3 23 15 26 27 4 16 11 20 27 16 11 -3 27 -6 34 -6z m-9854 -299 c-15 -14 -62 -22 -69 -11 -3 6 4 10 17 10 13 0 30 4 38 10 17 10 28 4 14 -9z m52 -292 c11 -11 26 -19 32 -19 10 0 32 -38 32 -56 0 -2 -12 -4 -26 -4 -16 0 -35 11 -51 30 -13 17 -29 30 -33 30 -5 0 -21 11 -35 24 l-26 24 43 -5 c24 -3 52 -14 64 -24z m9698 -242 c6 -26 5 -28 -16 -22 -37 12 -43 23 -23 45 21 23 29 18 39 -23z m179 -34 c7 -6 -21 -32 -35 -33 -13 0 -9 28 5 33 18 8 23 8 30 0z m-9873 -58 c-14 -17 -40 -20 -40 -6 0 8 18 16 44 20 5 0 3 -6 -4 -14z m-35 -352 c15 -21 3 -53 -20 -53 -8 0 -18 -7 -23 -15 -5 -11 -8 -5 -9 21 -2 56 27 81 52 47z m89 -327 c-21 -15 -30 -14 -19 3 3 6 14 11 23 11 13 0 13 -2 -4 -14z m17 -632 c-12 -9 -21 -21 -21 -29 0 -8 -7 -11 -20 -8 -26 7 -25 21 1 49 18 19 26 21 41 13 20 -11 20 -11 -1 -25z m6993 -1195 c-8 -13 -24 -1 -24 18 0 13 3 13 15 3 8 -7 12 -16 9 -21z"/>
<path d="M7463 4114 c-3 -8 0 -25 6 -37 28 -53 40 -70 53 -78 7 -4 371 -8 809 -8 708 0 798 1 810 15 10 12 10 20 1 35 -16 26 -17 26 25 27 23 1 45 -5 58 -17 56 -50 187 -78 218 -46 15 15 12 55 -4 55 -5 0 -9 5 -9 11 0 5 4 8 9 5 5 -3 14 1 21 9 10 12 10 18 0 30 -11 13 -41 15 -184 13 l-171 -3 -3 -24 c-2 -13 2 -28 10 -32 9 -6 7 -9 -9 -9 -14 0 -28 12 -42 35 l-20 35 -451 0 c-307 0 -458 -3 -472 -11 -14 -8 -23 -8 -31 0 -12 12 -105 15 -131 5 -9 -3 -16 -15 -16 -25 0 -10 -4 -19 -10 -19 -5 0 -10 9 -10 19 0 10 -7 22 -16 25 -9 3 -110 6 -225 6 -181 0 -210 -2 -216 -16z"/>
<path d="M9487 4124 c-12 -13 -8 -52 7 -57 8 -3 12 -15 9 -30 -7 -37 17 -45 148 -46 123 -2 149 3 149 25 0 20 20 17 55 -6 29 -19 46 -20 370 -19 375 1 420 -4 522 -62 29 -16 63 -29 75 -29 99 0 118 -14 118 -87 0 -64 78 -47 107 24 11 29 9 37 -23 103 -40 79 -101 136 -178 165 -59 23 -76 16 -76 -32 l-1 -38 -42 48 -43 47 -406 0 c-261 0 -409 -4 -413 -10 -4 -6 -13 -7 -23 -1 -20 11 -345 15 -355 5z"/>
<path d="M10980 3761 l-35 -6 -3 -602 -2 -602 22 -15 c18 -13 19 -18 8 -30 -7 -9 -10 -22 -7 -29 3 -7 -1 -21 -9 -32 -11 -15 -14 -86 -14 -366 0 -321 1 -349 18 -358 16 -9 16 -11 0 -23 -15 -11 -17 -30 -15 -142 2 -150 8 -160 72 -130 l40 19 0 115 0 115 -35 17 -35 17 31 -5 c18 -4 34 -1 38 5 4 6 7 346 7 757 l0 746 -22 16 -22 15 22 16 c21 16 22 22 22 255 -1 130 -3 242 -6 247 -7 10 -21 10 -75 0z"/>
<path d="M1782 3688 c-7 -7 -12 -44 -12 -95 0 -78 1 -84 26 -100 l26 -16 -26 -14 c-23 -12 -26 -20 -26 -62 0 -63 14 -75 80 -66 73 10 80 25 78 171 -1 141 -12 170 -60 160 -24 -5 -34 -2 -45 14 -16 23 -24 25 -41 8z"/>
<path d="M9426 3629 c-76 -10 -99 -23 -91 -49 12 -37 -4 -50 -61 -50 -42 0 -55 -4 -63 -19 -7 -13 -6 -24 4 -37 8 -11 15 -26 15 -34 0 -29 -32 31 -34 64 -2 18 -6 39 -11 46 -20 32 -149 -33 -236 -119 -70 -70 -108 -146 -113 -226 -2 -33 -7 -68 -11 -79 -5 -10 -3 -26 3 -36 8 -13 7 -21 -6 -34 -14 -14 -17 -37 -16 -134 0 -203 50 -351 155 -467 51 -54 198 -157 389 -270 159 -95 275 -172 310 -207 42 -41 55 -96 55 -235 0 -108 -2 -125 -21 -150 -29 -38 -81 -51 -124 -29 -45 22 -64 20 -84 -6 l-17 -23 12 25 c7 14 19 30 28 37 14 10 16 39 12 230 -2 148 -7 220 -15 225 -18 12 -644 10 -667 -2 -17 -10 -19 -22 -19 -111 0 -133 18 -329 37 -404 26 -103 58 -158 138 -234 41 -39 84 -71 94 -71 11 0 28 11 38 23 31 40 55 48 80 27 l22 -17 -25 -24 c-43 -40 -30 -60 61 -91 199 -67 483 -74 693 -17 136 36 276 105 288 142 3 9 14 17 24 17 22 0 97 89 106 125 8 32 0 42 -40 49 -19 4 -36 14 -40 24 -3 9 -9 23 -12 30 -11 24 37 12 62 -15 50 -54 77 5 88 194 13 196 -17 400 -75 532 -56 124 -246 275 -574 455 -252 139 -266 155 -273 307 -3 77 -1 102 13 130 22 43 31 49 77 49 29 0 53 -11 69 -33 1 -1 4 -74 8 -162 l6 -160 209 -3 c186 -2 210 -1 221 14 11 16 13 16 22 0 8 -14 24 -16 124 -14 l114 3 3 115 c5 190 -35 401 -77 415 -9 3 -23 21 -30 40 -33 93 -220 191 -436 230 -113 19 -318 27 -409 14z m414 -419 c0 -15 -7 -20 -25 -20 -27 0 -32 9 -13 28 18 18 38 14 38 -8z m-719 -373 c-8 -8 -14 -7 -23 2 -11 10 -9 15 7 27 18 13 20 13 23 -2 2 -9 -1 -21 -7 -27z m457 -185 c2 -7 -3 -12 -12 -12 -9 0 -16 7 -16 16 0 17 22 14 28 -4z m-120 -65 c4 -37 -13 -34 -27 4 -9 27 -8 30 7 27 10 -2 18 -14 20 -31z m697 -477 c-3 -5 -12 -10 -20 -10 -8 0 -17 5 -20 10 -4 6 5 10 20 10 15 0 24 -4 20 -10z m-912 -401 c-36 -15 -47 -10 -28 11 14 16 21 18 32 8 13 -10 12 -13 -4 -19z m-110 -53 c-7 -43 21 -104 52 -112 17 -4 21 -11 17 -30 -7 -37 -23 -40 -48 -9 -18 23 -27 27 -53 22 -29 -6 -31 -5 -31 23 0 18 -8 34 -20 43 -18 13 -19 15 -5 21 9 3 23 22 31 41 11 26 20 35 39 35 21 0 23 -3 18 -34z m263 -148 c-11 -6 -22 -6 -32 2 -24 21 -16 30 17 18 27 -9 29 -12 15 -20z"/>
<path d="M2568 3580 c-17 -10 -18 -79 -18 -1213 0 -922 3 -1206 12 -1215 16 -16 690 -17 719 -2 19 11 19 24 19 433 0 232 0 471 0 530 l0 108 38 -6 c66 -12 74 -16 90 -53 14 -32 17 -101 20 -517 2 -310 7 -484 14 -492 13 -17 639 -19 669 -3 18 10 19 23 19 170 0 131 -3 161 -16 174 -8 9 -22 16 -31 16 -10 0 -5 9 15 28 l29 27 2 138 c2 156 -4 206 -28 214 -53 17 -71 30 -71 47 0 18 1 18 19 2 11 -10 30 -16 43 -14 22 3 23 7 22 78 -2 105 -9 151 -27 186 -30 57 -107 132 -167 163 l-60 29 47 16 c162 55 214 170 215 471 0 195 -16 293 -64 394 -53 111 -178 216 -302 253 -17 5 -92 15 -166 24 -173 19 -1016 31 -1042 14z m827 -482 c40 -18 50 -60 50 -218 0 -173 -9 -205 -64 -220 -20 -5 -46 -10 -58 -10 l-23 0 0 236 0 236 36 -7 c20 -3 46 -11 59 -17z m427 -1263 c11 -14 26 -25 34 -25 8 0 14 -5 14 -11 0 -7 -7 -8 -17 -3 -10 4 -42 10 -70 12 -29 2 -53 8 -53 13 0 5 8 9 19 9 10 0 24 7 31 15 16 20 19 19 42 -10z m163 -315 c16 0 17 -2 6 -9 -17 -11 -51 4 -51 21 0 9 3 9 12 0 7 -7 21 -12 33 -12z m75 -30 c0 -5 -4 -10 -9 -10 -6 0 -13 5 -16 10 -3 6 1 10 9 10 9 0 16 -4 16 -10z"/>
<path d="M4355 3574 c-14 -14 -16 -31 -11 -98 2 -45 4 -85 4 -91 -7 -145 -5 -1318 2 -1517 9 -254 11 -282 34 -347 43 -123 128 -224 247 -294 72 -42 98 -46 106 -17 7 28 25 20 45 -20 22 -44 31 -48 141 -71 252 -52 537 -25 721 68 118 60 230 173 281 286 30 64 49 159 42 204 -3 18 -1 35 4 38 18 12 9 54 -16 73 l-25 20 25 16 25 17 0 864 c-1 824 -2 865 -19 874 -25 14 -687 14 -712 0 -18 -9 -19 -38 -19 -964 0 -525 -3 -973 -6 -995 -8 -49 -40 -76 -79 -66 -50 13 -50 9 -55 659 -5 566 -6 609 -22 618 -12 6 -18 22 -18 43 0 19 -7 39 -15 46 -26 21 -18 38 18 36 l32 -1 3 307 c2 302 2 307 -19 318 -16 9 -29 7 -62 -9 -31 -16 -43 -18 -49 -8 -9 14 -70 18 -369 24 -193 3 -219 2 -234 -13z m493 -90 c9 -3 32 -12 49 -21 26 -13 35 -14 48 -3 8 7 15 19 15 26 0 24 18 15 24 -12 4 -15 6 -27 4 -28 -2 0 -18 -11 -36 -24 -29 -21 -37 -22 -68 -12 -21 7 -54 9 -80 5 -44 -6 -44 -6 -44 24 0 21 10 39 33 60 30 29 32 30 35 10 2 -11 11 -22 20 -25z m-186 -341 c22 -20 24 -63 3 -63 -8 0 -19 -10 -26 -21 -9 -17 -13 -19 -20 -8 -12 19 -11 66 1 90 13 23 18 24 42 2z m-139 -210 c3 -18 -1 -36 -14 -52 -10 -13 -19 -19 -19 -14 0 6 -11 27 -25 47 l-25 36 24 -6 c13 -3 27 -1 30 5 12 19 23 12 29 -16z m-47 -188 c-11 -8 -24 -15 -30 -15 -5 0 -1 7 10 15 10 8 24 14 29 14 6 0 1 -6 -9 -14z m964 -711 c22 4 32 1 37 -10 7 -19 -24 -43 -57 -44 -15 0 -31 -5 -38 -12 -9 -9 -18 -7 -39 9 -33 24 -41 64 -18 87 15 15 19 14 51 -10 26 -20 41 -25 64 -20z m209 -45 c-10 -20 -53 -26 -64 -10 -3 5 3 12 14 16 11 3 22 13 25 22 5 12 9 13 21 3 11 -9 12 -17 4 -31z m-1016 -327 c24 -26 37 -69 29 -92 l-8 -21 -18 20 c-11 12 -29 21 -41 21 -25 0 -38 31 -28 68 7 27 43 30 66 4z"/>
<path d="M6297 3578 c-6 -4 -28 -5 -49 -2 -30 5 -38 3 -47 -14 -8 -15 -11 -314 -11 -1016 0 -891 2 -996 16 -1010 8 -9 23 -16 32 -16 16 -1 16 -2 0 -14 -10 -7 -18 -18 -18 -23 0 -6 -7 -16 -15 -23 -12 -10 -15 -41 -15 -156 0 -132 2 -144 20 -154 13 -7 204 -10 569 -10 486 1 552 3 566 16 13 14 16 50 14 253 -1 130 -5 244 -10 254 -9 15 -29 17 -209 17 l-200 0 0 23 c-1 12 -1 314 0 671 0 464 -3 653 -11 663 -6 7 -22 13 -35 13 -17 0 -25 7 -30 27 -9 32 22 93 47 93 9 0 19 6 21 13 3 6 6 94 7 193 2 159 0 183 -15 198 -15 16 -45 17 -316 15 -164 -2 -304 -6 -311 -11z m468 -694 l-13 -26 -12 23 c-7 13 -22 34 -33 47 l-21 22 31 -6 c20 -4 33 -2 39 7 15 25 24 -39 9 -67z m-175 -123 c0 -11 -58 -61 -70 -61 -17 0 -40 12 -40 21 0 11 69 46 93 48 9 1 17 -3 17 -8z m150 -5 c0 -7 -9 -16 -21 -19 -20 -5 -20 -5 -3 14 20 23 24 23 24 5z m-404 -798 c13 -6 24 -18 24 -25 0 -8 -6 -12 -12 -9 -7 3 -21 9 -30 12 -14 5 -18 16 -17 48 2 31 3 34 6 13 3 -18 14 -32 29 -39z m555 -291 c20 -15 33 -69 24 -96 -6 -20 -6 -20 -26 0 -10 10 -28 19 -39 19 -25 0 -40 28 -33 63 4 21 11 27 32 27 14 0 33 -6 42 -13z m-409 -122 c9 -35 33 -55 65 -55 13 0 23 -2 23 -5 0 -13 -33 -55 -44 -55 -6 0 -24 -7 -40 -15 -34 -18 -40 -14 -58 39 -10 31 -20 42 -48 52 l-35 12 38 16 c20 9 37 23 37 32 0 11 8 14 27 12 20 -2 29 -10 35 -33z m-172 -56 c0 -14 -16 -11 -29 5 -10 12 -8 13 8 9 12 -3 21 -9 21 -14z m840 -223 c0 -3 -4 -8 -10 -11 -5 -3 -10 -1 -10 4 0 6 5 11 10 11 6 0 10 -2 10 -4z"/>
<path d="M7487 3583 c-16 -4 -17 -16 -15 -105 3 -104 5 -108 51 -122 15 -5 13 -10 -18 -37 l-35 -31 0 -1068 c0 -965 2 -1068 16 -1074 28 -11 844 -7 865 4 12 7 19 21 19 41 0 18 4 28 10 24 6 -3 7 -17 4 -30 -4 -17 0 -26 13 -33 24 -13 280 -14 304 -1 18 9 19 25 19 259 0 188 -3 251 -12 257 -7 4 -41 9 -76 9 -52 2 -64 -1 -76 -18 -8 -11 -12 -27 -9 -34 4 -11 -2 -10 -26 3 -38 22 -62 11 -76 -35 -5 -18 -13 -32 -17 -32 -15 0 -8 58 7 64 20 7 19 42 -1 50 -9 3 -63 6 -120 6 l-104 0 0 230 0 230 128 1 c70 1 157 1 194 -1 118 -4 108 -27 108 260 0 217 -2 249 -16 254 -9 3 -105 6 -215 6 l-199 0 0 195 0 195 228 2 227 3 3 262 2 262 -34 7 c-19 3 -128 4 -243 0 -114 -3 -212 -5 -218 -4 -42 4 -674 5 -688 1z m143 -217 c0 -2 -8 -10 -17 -17 -16 -13 -17 -12 -4 4 13 16 21 21 21 13z m214 -703 c-9 -32 -24 -18 -24 20 0 27 2 30 15 17 8 -9 12 -24 9 -37z m106 -99 c15 -27 36 -53 48 -59 18 -8 39 -51 29 -61 -2 -2 -20 5 -40 16 -20 11 -43 20 -49 20 -28 0 -40 19 -47 73 -7 55 -2 69 23 63 6 -1 22 -24 36 -52z m269 -76 c-26 -16 -34 -17 -40 -6 -17 26 -9 34 32 30 l41 -4 -33 -20z m246 -78 c3 -5 2 -10 -4 -10 -5 0 -13 5 -16 10 -3 6 -2 10 4 10 5 0 13 -4 16 -10z m-385 -39 c0 -5 -11 -6 -25 -3 -25 4 -31 13 -19 25 8 8 44 -10 44 -22z m-24 -617 c27 -1 29 -3 26 -40 -4 -40 -32 -86 -32 -52 0 8 -16 28 -35 42 -36 28 -44 53 -23 74 9 9 14 7 24 -5 6 -10 25 -18 40 -19z m523 -184 c7 -17 10 -38 5 -48 -6 -15 -8 -15 -11 3 -2 11 -8 32 -13 48 -12 37 2 35 19 -3z m-659 -14 c0 -18 49 -58 61 -50 5 3 9 0 9 -6 0 -18 -35 -2 -76 35 -34 31 -36 35 -16 35 12 0 22 -6 22 -14z m120 -20 c0 -3 -4 -8 -10 -11 -5 -3 -10 -1 -10 4 0 6 5 11 10 11 6 0 10 -2 10 -4z m508 -263 c-26 -53 -34 -63 -47 -61 -10 2 -17 16 -19 36 -3 31 -2 32 33 32 20 0 35 -3 33 -7z"/>
<path d="M1781 3276 c-8 -9 -11 -46 -9 -107 3 -94 3 -94 30 -97 32 -4 78 24 78 47 0 9 12 36 25 60 14 24 23 52 20 61 -10 33 -123 61 -144 36z"/>
<path d="M10952 1278 c-8 -8 -12 -55 -12 -144 0 -112 -3 -141 -22 -191 -28 -72 -110 -158 -188 -196 -61 -30 -185 -57 -259 -57 -26 0 -52 -5 -58 -11 -8 -8 -13 -8 -17 0 -11 17 -2818 15 -2834 -1 -9 -9 -12 -9 -12 0 0 9 -106 12 -445 12 l-445 0 0 -33 c0 -31 -2 -33 -29 -29 -23 3 -33 -2 -46 -22 -14 -21 -15 -29 -5 -41 11 -13 70 -15 415 -15 389 0 402 1 420 20 10 11 28 20 41 20 13 0 26 5 29 10 3 6 14 10 24 10 10 0 24 7 31 15 10 12 15 11 33 -9 12 -13 53 -33 92 -45 l70 -22 1535 3 1535 3 48 22 c77 36 131 87 170 161 l36 68 2 227 c1 167 -2 231 -11 242 -15 18 -81 20 -98 3z"/>
<path d="M11 4537 c-7 -7 -11 -76 -11 -189 l0 -178 54 0 c74 0 82 11 66 96 -12 62 -10 143 6 241 l6 41 -55 0 c-31 0 -60 -5 -66 -11z"/>
<path d="M1281 4527 c-13 -33 -66 -59 -106 -51 -39 7 -64 -15 -66 -57 -4 -81 -6 -105 -13 -121 -20 -45 21 -61 85 -34 35 15 59 38 80 78 6 13 18 27 25 31 8 4 14 17 14 28 0 12 10 29 22 38 14 12 18 22 13 31 -5 8 -9 28 -9 44 -1 40 -32 48 -45 13z"/>
<path d="M0 4066 l0 -66 43 0 c44 0 86 28 73 48 -3 5 1 15 9 22 35 29 8 52 -64 57 l-61 4 0 -65z"/>
<path d="M983 4097 c-4 -8 -21 -22 -36 -32 -19 -12 -27 -25 -25 -39 3 -20 9 -21 128 -23 139 -3 183 5 188 31 4 20 -34 66 -56 66 -7 0 -16 -9 -19 -20 -5 -17 -12 -20 -48 -17 -24 2 -55 13 -70 25 -32 25 -51 28 -62 9z"/>
<path d="M151 4080 c-19 -11 -9 -45 14 -45 13 0 21 8 23 21 3 23 -17 37 -37 24z"/>
<path d="M179 323 c-10 -11 -10 -19 -1 -33 6 -11 9 -26 6 -34 -7 -18 32 -86 49 -86 7 0 21 7 31 15 18 14 18 18 4 82 -14 66 -15 68 -45 70 -18 1 -38 -5 -44 -14z"/>
<path d="M112 287 c-7 -8 -9 -17 -5 -20 3 -4 -6 -16 -20 -28 -30 -23 -35 -56 -11 -66 8 -3 25 3 37 14 12 11 28 18 34 16 19 -7 25 20 15 58 -9 37 -32 48 -50 26z"/>
</g>
</svg>