<svg height="48" width="48" color="text" xmlns="http://www.w3.org/2000/svg" class="sc-5a69fd5e-0 hEjrWd"><path fill-rule="evenodd" clip-rule="evenodd" d="M14.902 0c-4.007 0-7.03 3.603-6.295 7.503l1.741 9.228C4.451 19.306 0 23.753 0 29.333v3.394c0 4.614 3.083 8.476 7.393 11.083C11.737 46.438 17.613 48 24 48c6.387 0 12.263-1.562 16.607-4.19C44.917 41.203 48 37.34 48 32.727v-3.394c0-5.61-4.497-10.074-10.445-12.644l1.733-9.186C40.024 3.603 37.001 0 32.993 0c-3.536 0-6.403 2.838-6.403 6.339v7.808a38.69 38.69 0 0 0-5.284.007V6.34c0-3.5-2.867-6.339-6.404-6.339Zm2.976 28.364c0 2.008-1.097 3.636-2.45 3.636-1.352 0-2.448-1.628-2.448-3.636 0-2.009 1.096-3.637 2.449-3.637 1.352 0 2.449 1.628 2.449 3.637Zm16.898 0c0 2.008-1.097 3.636-2.45 3.636-1.352 0-2.448-1.628-2.448-3.636 0-2.009 1.096-3.637 2.449-3.637 1.352 0 2.449 1.628 2.449 3.637Z" fill="url(#a)"/><defs><linearGradient id="a" x1="24" y1="0" x2="24" y2="48" gradientUnits="userSpaceOnUse"><stop stop-color="#7645D9"/><stop offset="1" stop-color="#5121B1"/></linearGradient></defs></svg>