<svg viewBox="0 0 24 24" color="primary" width="36" xmlns="http://www.w3.org/2000/svg" class="sc-5a69fd5e-0 dwUojQ"><path d="M21.263 15.83a.75.75 0 0 1 0 1.061L18.654 19.5h1.725a.75.75 0 0 1 0 1.5h-3.536a.75.75 0 0 1-.75-.75v-3.535a.75.75 0 1 1 1.5 0v1.724l2.61-2.608a.75.75 0 0 1 1.06 0ZM2.813 7.78a.75.75 0 0 0 1.06 0l2.61-2.608v1.724a.75.75 0 1 0 1.5 0V3.361a.75.75 0 0 0-.75-.75H3.696a.75.75 0 1 0 0 1.5h1.725L2.812 6.72a.75.75 0 0 0 0 1.06Z"/><path fill-rule="evenodd" clip-rule="evenodd" d="M8.462 20.562a6 6 0 0 0 6.614-5.969 6 6 0 1 0-6-6 6 6 0 0 0-.614 11.97Zm-3.387-5.969a4 4 0 0 1 4.347-3.985 6.017 6.017 0 0 0 3.639 3.638 4 4 0 1 1-7.985.347Zm6-6a4 4 0 1 1 8 0 4 4 0 0 1-8 0Z"/></svg>